<?xml version="1.0" encoding="us-ascii" standalone="no"?><svg xmlns="http://www.w3.org/2000/svg" xmlns:xlink="http://www.w3.org/1999/xlink" contentStyleType="text/css" height="718px" preserveAspectRatio="none" style="width:2472px;height:718px;background:#FFFFFF;" version="1.1" viewBox="0 0 2472 718" width="2472px" zoomAndPan="magnify"><defs/><g><!--class Operation--><g id="elem_Operation"><rect codeLine="18" fill="#F1F1F1" height="129.4844" id="Operation" rx="2.5" ry="2.5" style="stroke:#181818;stroke-width:0.5;" width="202" x="1135" y="80.5"/><ellipse cx="1196.25" cy="96.5" fill="#A9DCDF" rx="11" ry="11" style="stroke:#181818;stroke-width:1.0;"/><path d="M1198.3281,98.3125 L1198.7188,99.2969 L1198.3281,99.2969 C1197.875,99.2969 1197.7656,99.3125 1197.6094,99.4219 C1197.3594,99.5781 1197.2031,99.8594 1197.2031,100.1563 C1197.2031,100.4219 1197.3438,100.6719 1197.5625,100.8281 C1197.7031,100.9531 1197.9063,101 1198.3281,101 L1200.6875,101 C1201.0469,101 1201.2656,100.9688 1201.4063,100.875 C1201.6563,100.7344 1201.8125,100.4375 1201.8125,100.1563 C1201.8125,99.875 1201.6719,99.625 1201.4531,99.4688 C1201.2813,99.3281 1201.125,99.2969 1200.6563,99.2969 L1197.2656,91.0938 L1193.5938,91.0938 C1193.1406,91.0938 1193.0156,91.1094 1192.8594,91.2031 C1192.6094,91.375 1192.4531,91.6563 1192.4531,91.9375 C1192.4531,92.2188 1192.5938,92.4688 1192.8125,92.6406 C1192.9844,92.75 1193.1563,92.7813 1193.5938,92.7813 L1194.6719,92.7813 L1192.0313,99.2969 C1191.6094,99.2969 1191.4531,99.3125 1191.2969,99.4219 C1191.0469,99.5781 1190.8906,99.8594 1190.8906,100.1563 C1190.8906,100.7188 1191.2656,101 1192.0156,101 L1194.2813,101 C1194.6406,101 1194.8594,100.9688 1194.9844,100.875 C1195.25,100.7344 1195.3906,100.4375 1195.3906,100.1563 C1195.3906,99.875 1195.2656,99.625 1195.0469,99.4531 C1194.875,99.3281 1194.7344,99.2969 1194.2813,99.2969 L1193.8906,99.2969 L1194.2813,98.3125 L1198.3281,98.3125 Z M1197.625,96.6094 L1194.9531,96.6094 L1196.2969,93.3438 L1197.625,96.6094 Z " fill="#000000"/><text fill="#000000" font-family="sans-serif" font-size="14" font-style="italic" lengthAdjust="spacing" textLength="71" x="1216.75" y="101.3467">Operation</text><line style="stroke:#181818;stroke-width:0.5;" x1="1136" x2="1336" y1="112.5" y2="112.5"/><line style="stroke:#181818;stroke-width:0.5;" x1="1136" x2="1336" y1="120.5" y2="120.5"/><text fill="#000000" font-family="sans-serif" font-size="14" lengthAdjust="spacing" textLength="93" x="1141" y="137.4951">+get_name()</text><text fill="#000000" font-family="sans-serif" font-size="14" font-style="italic" lengthAdjust="spacing" textLength="78" x="1141" y="153.792">+get_dict()</text><text fill="#000000" font-family="sans-serif" font-size="14" font-style="italic" lengthAdjust="spacing" textLength="79" x="1141" y="170.0889">+execute()</text><text fill="#000000" font-family="sans-serif" font-size="14" font-style="italic" lengthAdjust="spacing" textLength="80" x="1141" y="186.3857">+__repr__()</text><text fill="#000000" font-family="sans-serif" font-size="14" font-style="italic" lengthAdjust="spacing" textLength="190" x="1141" y="202.6826">+create_from_user_input()</text></g><!--class Pause--><g id="elem_Pause"><rect codeLine="27" fill="#F1F1F1" height="145.7813" id="Pause" rx="2.5" ry="2.5" style="stroke:#181818;stroke-width:0.5;" width="242" x="7" y="392"/><ellipse cx="103.25" cy="408" fill="#ADD1B2" rx="11" ry="11" style="stroke:#181818;stroke-width:1.0;"/><path d="M105.5938,403.6719 C104.6563,403.2344 104.0625,403.0938 103.1875,403.0938 C100.5625,403.0938 98.5625,405.1719 98.5625,407.8906 L98.5625,409.0156 C98.5625,411.5938 100.6719,413.4844 103.5625,413.4844 C104.7813,413.4844 105.9375,413.1875 106.6875,412.6406 C107.2656,412.2344 107.5938,411.7813 107.5938,411.3906 C107.5938,410.9375 107.2031,410.5469 106.7344,410.5469 C106.5156,410.5469 106.3125,410.625 106.125,410.8125 C105.6719,411.2969 105.6719,411.2969 105.4844,411.3906 C105.0625,411.6563 104.375,411.7813 103.6094,411.7813 C101.5625,411.7813 100.2656,410.6875 100.2656,408.9844 L100.2656,407.8906 C100.2656,406.1094 101.5156,404.7969 103.25,404.7969 C103.8281,404.7969 104.4375,404.9531 104.9063,405.2031 C105.3906,405.4844 105.5625,405.7031 105.6563,406.1094 C105.7188,406.5156 105.75,406.6406 105.8906,406.7656 C106.0313,406.9063 106.2656,407.0156 106.4844,407.0156 C106.75,407.0156 107.0156,406.875 107.1875,406.6563 C107.2969,406.5 107.3281,406.3125 107.3281,405.8906 L107.3281,404.4688 C107.3281,404.0313 107.3125,403.9063 107.2188,403.75 C107.0625,403.4844 106.7813,403.3438 106.4844,403.3438 C106.1875,403.3438 105.9844,403.4375 105.7656,403.75 L105.5938,403.6719 Z " fill="#000000"/><text fill="#000000" font-family="sans-serif" font-size="14" lengthAdjust="spacing" textLength="41" x="123.75" y="412.8467">Pause</text><line style="stroke:#181818;stroke-width:0.5;" x1="8" x2="248" y1="424" y2="424"/><text fill="#000000" font-family="sans-serif" font-size="14" lengthAdjust="spacing" textLength="66" x="13" y="440.9951">-duration</text><line style="stroke:#181818;stroke-width:0.5;" x1="8" x2="248" y1="448.2969" y2="448.2969"/><text fill="#000000" font-family="sans-serif" font-size="14" lengthAdjust="spacing" textLength="158" x="13" y="465.292">+get_duration(): Float</text><text fill="#000000" font-family="sans-serif" font-size="14" lengthAdjust="spacing" textLength="120" x="13" y="481.5889">+get_dict(): Dict</text><text fill="#000000" font-family="sans-serif" font-size="14" lengthAdjust="spacing" textLength="120" x="13" y="497.8857">+execute(): Void</text><text fill="#000000" font-family="sans-serif" font-size="14" lengthAdjust="spacing" textLength="121" x="13" y="514.1826">+__repr__(): Void</text><text fill="#000000" font-family="sans-serif" font-size="14" lengthAdjust="spacing" textLength="230" x="13" y="530.4795">+create_from_user_input(): cls()</text></g><!--class MoveMouseToPoint--><g id="elem_MoveMouseToPoint"><rect codeLine="36" fill="#F1F1F1" height="178.375" id="MoveMouseToPoint" rx="2.5" ry="2.5" style="stroke:#181818;stroke-width:0.5;" width="242" x="284" y="376"/><ellipse cx="331.25" cy="392" fill="#ADD1B2" rx="11" ry="11" style="stroke:#181818;stroke-width:1.0;"/><path d="M333.5938,387.6719 C332.6563,387.2344 332.0625,387.0938 331.1875,387.0938 C328.5625,387.0938 326.5625,389.1719 326.5625,391.8906 L326.5625,393.0156 C326.5625,395.5938 328.6719,397.4844 331.5625,397.4844 C332.7813,397.4844 333.9375,397.1875 334.6875,396.6406 C335.2656,396.2344 335.5938,395.7813 335.5938,395.3906 C335.5938,394.9375 335.2031,394.5469 334.7344,394.5469 C334.5156,394.5469 334.3125,394.625 334.125,394.8125 C333.6719,395.2969 333.6719,395.2969 333.4844,395.3906 C333.0625,395.6563 332.375,395.7813 331.6094,395.7813 C329.5625,395.7813 328.2656,394.6875 328.2656,392.9844 L328.2656,391.8906 C328.2656,390.1094 329.5156,388.7969 331.25,388.7969 C331.8281,388.7969 332.4375,388.9531 332.9063,389.2031 C333.3906,389.4844 333.5625,389.7031 333.6563,390.1094 C333.7188,390.5156 333.75,390.6406 333.8906,390.7656 C334.0313,390.9063 334.2656,391.0156 334.4844,391.0156 C334.75,391.0156 335.0156,390.875 335.1875,390.6563 C335.2969,390.5 335.3281,390.3125 335.3281,389.8906 L335.3281,388.4688 C335.3281,388.0313 335.3125,387.9063 335.2188,387.75 C335.0625,387.4844 334.7813,387.3438 334.4844,387.3438 C334.1875,387.3438 333.9844,387.4375 333.7656,387.75 L333.5938,387.6719 Z " fill="#000000"/><text fill="#000000" font-family="sans-serif" font-size="14" lengthAdjust="spacing" textLength="139" x="351.75" y="396.8467">MoveMouseToPoint</text><line style="stroke:#181818;stroke-width:0.5;" x1="285" x2="525" y1="408" y2="408"/><text fill="#000000" font-family="sans-serif" font-size="14" lengthAdjust="spacing" textLength="14" x="290" y="424.9951">-x</text><text fill="#000000" font-family="sans-serif" font-size="14" lengthAdjust="spacing" textLength="14" x="290" y="441.292">-y</text><line style="stroke:#181818;stroke-width:0.5;" x1="285" x2="525" y1="448.5938" y2="448.5938"/><text fill="#000000" font-family="sans-serif" font-size="14" lengthAdjust="spacing" textLength="90" x="290" y="465.5889">+get_x(): Int</text><text fill="#000000" font-family="sans-serif" font-size="14" lengthAdjust="spacing" textLength="90" x="290" y="481.8857">+get_y(): Int</text><text fill="#000000" font-family="sans-serif" font-size="14" lengthAdjust="spacing" textLength="120" x="290" y="498.1826">+get_dict(): Dict</text><text fill="#000000" font-family="sans-serif" font-size="14" lengthAdjust="spacing" textLength="120" x="290" y="514.4795">+execute(): Void</text><text fill="#000000" font-family="sans-serif" font-size="14" lengthAdjust="spacing" textLength="121" x="290" y="530.7764">+__repr__(): Void</text><text fill="#000000" font-family="sans-serif" font-size="14" lengthAdjust="spacing" textLength="230" x="290" y="547.0732">+create_from_user_input(): cls()</text></g><!--class ReplicateMouseMovement--><g id="elem_ReplicateMouseMovement"><rect codeLine="47" fill="#F1F1F1" height="145.7813" id="ReplicateMouseMovement" rx="2.5" ry="2.5" style="stroke:#181818;stroke-width:0.5;" width="242" x="561" y="392"/><ellipse cx="584.55" cy="408" fill="#ADD1B2" rx="11" ry="11" style="stroke:#181818;stroke-width:1.0;"/><path d="M586.8938,403.6719 C585.9563,403.2344 585.3625,403.0938 584.4875,403.0938 C581.8625,403.0938 579.8625,405.1719 579.8625,407.8906 L579.8625,409.0156 C579.8625,411.5938 581.9719,413.4844 584.8625,413.4844 C586.0813,413.4844 587.2375,413.1875 587.9875,412.6406 C588.5656,412.2344 588.8938,411.7813 588.8938,411.3906 C588.8938,410.9375 588.5031,410.5469 588.0344,410.5469 C587.8156,410.5469 587.6125,410.625 587.425,410.8125 C586.9719,411.2969 586.9719,411.2969 586.7844,411.3906 C586.3625,411.6563 585.675,411.7813 584.9094,411.7813 C582.8625,411.7813 581.5656,410.6875 581.5656,408.9844 L581.5656,407.8906 C581.5656,406.1094 582.8156,404.7969 584.55,404.7969 C585.1281,404.7969 585.7375,404.9531 586.2063,405.2031 C586.6906,405.4844 586.8625,405.7031 586.9563,406.1094 C587.0188,406.5156 587.05,406.6406 587.1906,406.7656 C587.3313,406.9063 587.5656,407.0156 587.7844,407.0156 C588.05,407.0156 588.3156,406.875 588.4875,406.6563 C588.5969,406.5 588.6281,406.3125 588.6281,405.8906 L588.6281,404.4688 C588.6281,404.0313 588.6125,403.9063 588.5188,403.75 C588.3625,403.4844 588.0813,403.3438 587.7844,403.3438 C587.4875,403.3438 587.2844,403.4375 587.0656,403.75 L586.8938,403.6719 Z " fill="#000000"/><text fill="#000000" font-family="sans-serif" font-size="14" lengthAdjust="spacing" textLength="191" x="600.45" y="412.8467">ReplicateMouseMovement</text><line style="stroke:#181818;stroke-width:0.5;" x1="562" x2="802" y1="424" y2="424"/><text fill="#000000" font-family="sans-serif" font-size="14" lengthAdjust="spacing" textLength="72" x="567" y="440.9951">-positions</text><line style="stroke:#181818;stroke-width:0.5;" x1="562" x2="802" y1="448.2969" y2="448.2969"/><text fill="#000000" font-family="sans-serif" font-size="14" lengthAdjust="spacing" textLength="166" x="567" y="465.292">+get_positions(): Array</text><text fill="#000000" font-family="sans-serif" font-size="14" lengthAdjust="spacing" textLength="120" x="567" y="481.5889">+get_dict(): Dict</text><text fill="#000000" font-family="sans-serif" font-size="14" lengthAdjust="spacing" textLength="120" x="567" y="497.8857">+execute(): Void</text><text fill="#000000" font-family="sans-serif" font-size="14" lengthAdjust="spacing" textLength="121" x="567" y="514.1826">+__repr__(): Void</text><text fill="#000000" font-family="sans-serif" font-size="14" lengthAdjust="spacing" textLength="230" x="567" y="530.4795">+create_from_user_input(): cls()</text></g><!--class ReplicateMouseActions--><g id="elem_ReplicateMouseActions"><rect codeLine="56" fill="#F1F1F1" height="145.7813" id="ReplicateMouseActions" rx="2.5" ry="2.5" style="stroke:#181818;stroke-width:0.5;" width="242" x="838" y="392"/><ellipse cx="871.9" cy="408" fill="#ADD1B2" rx="11" ry="11" style="stroke:#181818;stroke-width:1.0;"/><path d="M874.2438,403.6719 C873.3063,403.2344 872.7125,403.0938 871.8375,403.0938 C869.2125,403.0938 867.2125,405.1719 867.2125,407.8906 L867.2125,409.0156 C867.2125,411.5938 869.3219,413.4844 872.2125,413.4844 C873.4313,413.4844 874.5875,413.1875 875.3375,412.6406 C875.9156,412.2344 876.2438,411.7813 876.2438,411.3906 C876.2438,410.9375 875.8531,410.5469 875.3844,410.5469 C875.1656,410.5469 874.9625,410.625 874.775,410.8125 C874.3219,411.2969 874.3219,411.2969 874.1344,411.3906 C873.7125,411.6563 873.025,411.7813 872.2594,411.7813 C870.2125,411.7813 868.9156,410.6875 868.9156,408.9844 L868.9156,407.8906 C868.9156,406.1094 870.1656,404.7969 871.9,404.7969 C872.4781,404.7969 873.0875,404.9531 873.5563,405.2031 C874.0406,405.4844 874.2125,405.7031 874.3063,406.1094 C874.3688,406.5156 874.4,406.6406 874.5406,406.7656 C874.6813,406.9063 874.9156,407.0156 875.1344,407.0156 C875.4,407.0156 875.6656,406.875 875.8375,406.6563 C875.9469,406.5 875.9781,406.3125 875.9781,405.8906 L875.9781,404.4688 C875.9781,404.0313 875.9625,403.9063 875.8688,403.75 C875.7125,403.4844 875.4313,403.3438 875.1344,403.3438 C874.8375,403.3438 874.6344,403.4375 874.4156,403.75 L874.2438,403.6719 Z " fill="#000000"/><text fill="#000000" font-family="sans-serif" font-size="14" lengthAdjust="spacing" textLength="168" x="890.1" y="412.8467">ReplicateMouseActions</text><line style="stroke:#181818;stroke-width:0.5;" x1="839" x2="1079" y1="424" y2="424"/><text fill="#000000" font-family="sans-serif" font-size="14" lengthAdjust="spacing" textLength="58" x="844" y="440.9951">-actions</text><line style="stroke:#181818;stroke-width:0.5;" x1="839" x2="1079" y1="448.2969" y2="448.2969"/><text fill="#000000" font-family="sans-serif" font-size="14" lengthAdjust="spacing" textLength="166" x="844" y="465.292">+get_positions(): Array</text><text fill="#000000" font-family="sans-serif" font-size="14" lengthAdjust="spacing" textLength="120" x="844" y="481.5889">+get_dict(): Dict</text><text fill="#000000" font-family="sans-serif" font-size="14" lengthAdjust="spacing" textLength="120" x="844" y="497.8857">+execute(): Void</text><text fill="#000000" font-family="sans-serif" font-size="14" lengthAdjust="spacing" textLength="121" x="844" y="514.1826">+__repr__(): Void</text><text fill="#000000" font-family="sans-serif" font-size="14" lengthAdjust="spacing" textLength="230" x="844" y="530.4795">+create_from_user_input(): cls()</text></g><!--class ClickMouse--><g id="elem_ClickMouse"><rect codeLine="65" fill="#F1F1F1" height="243.5625" id="ClickMouse" rx="2.5" ry="2.5" style="stroke:#181818;stroke-width:0.5;" width="242" x="1115" y="343"/><ellipse cx="1191.75" cy="359" fill="#ADD1B2" rx="11" ry="11" style="stroke:#181818;stroke-width:1.0;"/><path d="M1194.0938,354.6719 C1193.1563,354.2344 1192.5625,354.0938 1191.6875,354.0938 C1189.0625,354.0938 1187.0625,356.1719 1187.0625,358.8906 L1187.0625,360.0156 C1187.0625,362.5938 1189.1719,364.4844 1192.0625,364.4844 C1193.2813,364.4844 1194.4375,364.1875 1195.1875,363.6406 C1195.7656,363.2344 1196.0938,362.7813 1196.0938,362.3906 C1196.0938,361.9375 1195.7031,361.5469 1195.2344,361.5469 C1195.0156,361.5469 1194.8125,361.625 1194.625,361.8125 C1194.1719,362.2969 1194.1719,362.2969 1193.9844,362.3906 C1193.5625,362.6563 1192.875,362.7813 1192.1094,362.7813 C1190.0625,362.7813 1188.7656,361.6875 1188.7656,359.9844 L1188.7656,358.8906 C1188.7656,357.1094 1190.0156,355.7969 1191.75,355.7969 C1192.3281,355.7969 1192.9375,355.9531 1193.4063,356.2031 C1193.8906,356.4844 1194.0625,356.7031 1194.1563,357.1094 C1194.2188,357.5156 1194.25,357.6406 1194.3906,357.7656 C1194.5313,357.9063 1194.7656,358.0156 1194.9844,358.0156 C1195.25,358.0156 1195.5156,357.875 1195.6875,357.6563 C1195.7969,357.5 1195.8281,357.3125 1195.8281,356.8906 L1195.8281,355.4688 C1195.8281,355.0313 1195.8125,354.9063 1195.7188,354.75 C1195.5625,354.4844 1195.2813,354.3438 1194.9844,354.3438 C1194.6875,354.3438 1194.4844,354.4375 1194.2656,354.75 L1194.0938,354.6719 Z " fill="#000000"/><text fill="#000000" font-family="sans-serif" font-size="14" lengthAdjust="spacing" textLength="80" x="1212.25" y="363.8467">ClickMouse</text><line style="stroke:#181818;stroke-width:0.5;" x1="1116" x2="1356" y1="375" y2="375"/><text fill="#000000" font-family="sans-serif" font-size="14" lengthAdjust="spacing" textLength="14" x="1121" y="391.9951">-x</text><text fill="#000000" font-family="sans-serif" font-size="14" lengthAdjust="spacing" textLength="14" x="1121" y="408.292">-y</text><text fill="#000000" font-family="sans-serif" font-size="14" lengthAdjust="spacing" textLength="56" x="1121" y="424.5889">-button</text><text fill="#000000" font-family="sans-serif" font-size="14" lengthAdjust="spacing" textLength="46" x="1121" y="440.8857">-clicks</text><line style="stroke:#181818;stroke-width:0.5;" x1="1116" x2="1356" y1="448.1875" y2="448.1875"/><text fill="#000000" font-family="sans-serif" font-size="14" lengthAdjust="spacing" textLength="90" x="1121" y="465.1826">+get_x(): Int</text><text fill="#000000" font-family="sans-serif" font-size="14" lengthAdjust="spacing" textLength="90" x="1121" y="481.4795">+get_y(): Int</text><text fill="#000000" font-family="sans-serif" font-size="14" lengthAdjust="spacing" textLength="162" x="1121" y="497.7764">+get_button(): Button</text><text fill="#000000" font-family="sans-serif" font-size="14" lengthAdjust="spacing" textLength="122" x="1121" y="514.0732">+get_clicks(): Int</text><text fill="#000000" font-family="sans-serif" font-size="14" lengthAdjust="spacing" textLength="120" x="1121" y="530.3701">+get_dict(): Dict</text><text fill="#000000" font-family="sans-serif" font-size="14" lengthAdjust="spacing" textLength="120" x="1121" y="546.667">+execute(): Void</text><text fill="#000000" font-family="sans-serif" font-size="14" lengthAdjust="spacing" textLength="121" x="1121" y="562.9639">+__repr__(): Void</text><text fill="#000000" font-family="sans-serif" font-size="14" lengthAdjust="spacing" textLength="230" x="1121" y="579.2607">+create_from_user_input(): cls()</text></g><!--class PrsRlsMouse--><g id="elem_PrsRlsMouse"><rect codeLine="80" fill="#F1F1F1" height="129.4844" id="PrsRlsMouse" rx="2.5" ry="2.5" style="stroke:#181818;stroke-width:0.5;" width="242" x="1392" y="400.5"/><ellipse cx="1464.75" cy="416.5" fill="#A9DCDF" rx="11" ry="11" style="stroke:#181818;stroke-width:1.0;"/><path d="M1466.8281,418.3125 L1467.2188,419.2969 L1466.8281,419.2969 C1466.375,419.2969 1466.2656,419.3125 1466.1094,419.4219 C1465.8594,419.5781 1465.7031,419.8594 1465.7031,420.1563 C1465.7031,420.4219 1465.8438,420.6719 1466.0625,420.8281 C1466.2031,420.9531 1466.4063,421 1466.8281,421 L1469.1875,421 C1469.5469,421 1469.7656,420.9688 1469.9063,420.875 C1470.1563,420.7344 1470.3125,420.4375 1470.3125,420.1563 C1470.3125,419.875 1470.1719,419.625 1469.9531,419.4688 C1469.7813,419.3281 1469.625,419.2969 1469.1563,419.2969 L1465.7656,411.0938 L1462.0938,411.0938 C1461.6406,411.0938 1461.5156,411.1094 1461.3594,411.2031 C1461.1094,411.375 1460.9531,411.6563 1460.9531,411.9375 C1460.9531,412.2188 1461.0938,412.4688 1461.3125,412.6406 C1461.4844,412.75 1461.6563,412.7813 1462.0938,412.7813 L1463.1719,412.7813 L1460.5313,419.2969 C1460.1094,419.2969 1459.9531,419.3125 1459.7969,419.4219 C1459.5469,419.5781 1459.3906,419.8594 1459.3906,420.1563 C1459.3906,420.7188 1459.7656,421 1460.5156,421 L1462.7813,421 C1463.1406,421 1463.3594,420.9688 1463.4844,420.875 C1463.75,420.7344 1463.8906,420.4375 1463.8906,420.1563 C1463.8906,419.875 1463.7656,419.625 1463.5469,419.4531 C1463.375,419.3281 1463.2344,419.2969 1462.7813,419.2969 L1462.3906,419.2969 L1462.7813,418.3125 L1466.8281,418.3125 Z M1466.125,416.6094 L1463.4531,416.6094 L1464.7969,413.3438 L1466.125,416.6094 Z " fill="#000000"/><text fill="#000000" font-family="sans-serif" font-size="14" font-style="italic" lengthAdjust="spacing" textLength="88" x="1485.25" y="421.3467">PrsRlsMouse</text><line style="stroke:#181818;stroke-width:0.5;" x1="1393" x2="1633" y1="432.5" y2="432.5"/><text fill="#000000" font-family="sans-serif" font-size="14" lengthAdjust="spacing" textLength="56" x="1398" y="449.4951">-button</text><line style="stroke:#181818;stroke-width:0.5;" x1="1393" x2="1633" y1="456.7969" y2="456.7969"/><text fill="#000000" font-family="sans-serif" font-size="14" lengthAdjust="spacing" textLength="162" x="1398" y="473.792">+get_button(): Button</text><text fill="#000000" font-family="sans-serif" font-size="14" lengthAdjust="spacing" textLength="120" x="1398" y="490.0889">+get_dict(): Dict</text><text fill="#000000" font-family="sans-serif" font-size="14" lengthAdjust="spacing" textLength="121" x="1398" y="506.3857">+__repr__(): Void</text><text fill="#000000" font-family="sans-serif" font-size="14" lengthAdjust="spacing" textLength="230" x="1398" y="522.6826">+create_from_user_input(): cls()</text></g><!--class PressMouse--><g id="elem_PressMouse"><rect codeLine="88" fill="#F1F1F1" height="64.2969" id="PressMouse" rx="2.5" ry="2.5" style="stroke:#181818;stroke-width:0.5;" width="132" x="1363" y="647"/><ellipse cx="1385.65" cy="663" fill="#ADD1B2" rx="11" ry="11" style="stroke:#181818;stroke-width:1.0;"/><path d="M1387.9938,658.6719 C1387.0563,658.2344 1386.4625,658.0938 1385.5875,658.0938 C1382.9625,658.0938 1380.9625,660.1719 1380.9625,662.8906 L1380.9625,664.0156 C1380.9625,666.5938 1383.0719,668.4844 1385.9625,668.4844 C1387.1813,668.4844 1388.3375,668.1875 1389.0875,667.6406 C1389.6656,667.2344 1389.9938,666.7813 1389.9938,666.3906 C1389.9938,665.9375 1389.6031,665.5469 1389.1344,665.5469 C1388.9156,665.5469 1388.7125,665.625 1388.525,665.8125 C1388.0719,666.2969 1388.0719,666.2969 1387.8844,666.3906 C1387.4625,666.6563 1386.775,666.7813 1386.0094,666.7813 C1383.9625,666.7813 1382.6656,665.6875 1382.6656,663.9844 L1382.6656,662.8906 C1382.6656,661.1094 1383.9156,659.7969 1385.65,659.7969 C1386.2281,659.7969 1386.8375,659.9531 1387.3063,660.2031 C1387.7906,660.4844 1387.9625,660.7031 1388.0563,661.1094 C1388.1188,661.5156 1388.15,661.6406 1388.2906,661.7656 C1388.4313,661.9063 1388.6656,662.0156 1388.8844,662.0156 C1389.15,662.0156 1389.4156,661.875 1389.5875,661.6563 C1389.6969,661.5 1389.7281,661.3125 1389.7281,660.8906 L1389.7281,659.4688 C1389.7281,659.0313 1389.7125,658.9063 1389.6188,658.75 C1389.4625,658.4844 1389.1813,658.3438 1388.8844,658.3438 C1388.5875,658.3438 1388.3844,658.4375 1388.1656,658.75 L1387.9938,658.6719 Z " fill="#000000"/><text fill="#000000" font-family="sans-serif" font-size="14" lengthAdjust="spacing" textLength="83" x="1401.35" y="667.8467">PressMouse</text><line style="stroke:#181818;stroke-width:0.5;" x1="1364" x2="1494" y1="679" y2="679"/><line style="stroke:#181818;stroke-width:0.5;" x1="1364" x2="1494" y1="687" y2="687"/><text fill="#000000" font-family="sans-serif" font-size="14" lengthAdjust="spacing" textLength="120" x="1369" y="703.9951">+execute(): Void</text></g><!--class ReleaseMouse--><g id="elem_ReleaseMouse"><rect codeLine="92" fill="#F1F1F1" height="64.2969" id="ReleaseMouse" rx="2.5" ry="2.5" style="stroke:#181818;stroke-width:0.5;" width="133" x="1530.5" y="647"/><ellipse cx="1545.5" cy="663" fill="#ADD1B2" rx="11" ry="11" style="stroke:#181818;stroke-width:1.0;"/><path d="M1547.8438,658.6719 C1546.9063,658.2344 1546.3125,658.0938 1545.4375,658.0938 C1542.8125,658.0938 1540.8125,660.1719 1540.8125,662.8906 L1540.8125,664.0156 C1540.8125,666.5938 1542.9219,668.4844 1545.8125,668.4844 C1547.0313,668.4844 1548.1875,668.1875 1548.9375,667.6406 C1549.5156,667.2344 1549.8438,666.7813 1549.8438,666.3906 C1549.8438,665.9375 1549.4531,665.5469 1548.9844,665.5469 C1548.7656,665.5469 1548.5625,665.625 1548.375,665.8125 C1547.9219,666.2969 1547.9219,666.2969 1547.7344,666.3906 C1547.3125,666.6563 1546.625,666.7813 1545.8594,666.7813 C1543.8125,666.7813 1542.5156,665.6875 1542.5156,663.9844 L1542.5156,662.8906 C1542.5156,661.1094 1543.7656,659.7969 1545.5,659.7969 C1546.0781,659.7969 1546.6875,659.9531 1547.1563,660.2031 C1547.6406,660.4844 1547.8125,660.7031 1547.9063,661.1094 C1547.9688,661.5156 1548,661.6406 1548.1406,661.7656 C1548.2813,661.9063 1548.5156,662.0156 1548.7344,662.0156 C1549,662.0156 1549.2656,661.875 1549.4375,661.6563 C1549.5469,661.5 1549.5781,661.3125 1549.5781,660.8906 L1549.5781,659.4688 C1549.5781,659.0313 1549.5625,658.9063 1549.4688,658.75 C1549.3125,658.4844 1549.0313,658.3438 1548.7344,658.3438 C1548.4375,658.3438 1548.2344,658.4375 1548.0156,658.75 L1547.8438,658.6719 Z " fill="#000000"/><text fill="#000000" font-family="sans-serif" font-size="14" lengthAdjust="spacing" textLength="101" x="1559.5" y="667.8467">ReleaseMouse</text><line style="stroke:#181818;stroke-width:0.5;" x1="1531.5" x2="1662.5" y1="679" y2="679"/><line style="stroke:#181818;stroke-width:0.5;" x1="1531.5" x2="1662.5" y1="687" y2="687"/><text fill="#000000" font-family="sans-serif" font-size="14" lengthAdjust="spacing" textLength="120" x="1536.5" y="703.9951">+execute(): Void</text></g><!--class TypeText--><g id="elem_TypeText"><rect codeLine="96" fill="#F1F1F1" height="145.7813" id="TypeText" rx="2.5" ry="2.5" style="stroke:#181818;stroke-width:0.5;" width="242" x="1669" y="392"/><ellipse cx="1751.25" cy="408" fill="#ADD1B2" rx="11" ry="11" style="stroke:#181818;stroke-width:1.0;"/><path d="M1753.5938,403.6719 C1752.6563,403.2344 1752.0625,403.0938 1751.1875,403.0938 C1748.5625,403.0938 1746.5625,405.1719 1746.5625,407.8906 L1746.5625,409.0156 C1746.5625,411.5938 1748.6719,413.4844 1751.5625,413.4844 C1752.7813,413.4844 1753.9375,413.1875 1754.6875,412.6406 C1755.2656,412.2344 1755.5938,411.7813 1755.5938,411.3906 C1755.5938,410.9375 1755.2031,410.5469 1754.7344,410.5469 C1754.5156,410.5469 1754.3125,410.625 1754.125,410.8125 C1753.6719,411.2969 1753.6719,411.2969 1753.4844,411.3906 C1753.0625,411.6563 1752.375,411.7813 1751.6094,411.7813 C1749.5625,411.7813 1748.2656,410.6875 1748.2656,408.9844 L1748.2656,407.8906 C1748.2656,406.1094 1749.5156,404.7969 1751.25,404.7969 C1751.8281,404.7969 1752.4375,404.9531 1752.9063,405.2031 C1753.3906,405.4844 1753.5625,405.7031 1753.6563,406.1094 C1753.7188,406.5156 1753.75,406.6406 1753.8906,406.7656 C1754.0313,406.9063 1754.2656,407.0156 1754.4844,407.0156 C1754.75,407.0156 1755.0156,406.875 1755.1875,406.6563 C1755.2969,406.5 1755.3281,406.3125 1755.3281,405.8906 L1755.3281,404.4688 C1755.3281,404.0313 1755.3125,403.9063 1755.2188,403.75 C1755.0625,403.4844 1754.7813,403.3438 1754.4844,403.3438 C1754.1875,403.3438 1753.9844,403.4375 1753.7656,403.75 L1753.5938,403.6719 Z " fill="#000000"/><text fill="#000000" font-family="sans-serif" font-size="14" lengthAdjust="spacing" textLength="69" x="1771.75" y="412.8467">TypeText</text><line style="stroke:#181818;stroke-width:0.5;" x1="1670" x2="1910" y1="424" y2="424"/><text fill="#000000" font-family="sans-serif" font-size="14" lengthAdjust="spacing" textLength="37" x="1675" y="440.9951">-text</text><line style="stroke:#181818;stroke-width:0.5;" x1="1670" x2="1910" y1="448.2969" y2="448.2969"/><text fill="#000000" font-family="sans-serif" font-size="14" lengthAdjust="spacing" textLength="137" x="1675" y="465.292">+get_text(): String</text><text fill="#000000" font-family="sans-serif" font-size="14" lengthAdjust="spacing" textLength="120" x="1675" y="481.5889">+get_dict(): Dict</text><text fill="#000000" font-family="sans-serif" font-size="14" lengthAdjust="spacing" textLength="120" x="1675" y="497.8857">+execute(): Void</text><text fill="#000000" font-family="sans-serif" font-size="14" lengthAdjust="spacing" textLength="121" x="1675" y="514.1826">+__repr__(): Void</text><text fill="#000000" font-family="sans-serif" font-size="14" lengthAdjust="spacing" textLength="230" x="1675" y="530.4795">+create_from_user_input(): cls()</text></g><!--class KeyOperation--><g id="elem_KeyOperation"><rect codeLine="105" fill="#F1F1F1" height="129.4844" id="KeyOperation" rx="2.5" ry="2.5" style="stroke:#181818;stroke-width:0.5;" width="242" x="1946" y="400.5"/><ellipse cx="2014.25" cy="416.5" fill="#A9DCDF" rx="11" ry="11" style="stroke:#181818;stroke-width:1.0;"/><path d="M2016.3281,418.3125 L2016.7188,419.2969 L2016.3281,419.2969 C2015.875,419.2969 2015.7656,419.3125 2015.6094,419.4219 C2015.3594,419.5781 2015.2031,419.8594 2015.2031,420.1563 C2015.2031,420.4219 2015.3438,420.6719 2015.5625,420.8281 C2015.7031,420.9531 2015.9063,421 2016.3281,421 L2018.6875,421 C2019.0469,421 2019.2656,420.9688 2019.4063,420.875 C2019.6563,420.7344 2019.8125,420.4375 2019.8125,420.1563 C2019.8125,419.875 2019.6719,419.625 2019.4531,419.4688 C2019.2813,419.3281 2019.125,419.2969 2018.6563,419.2969 L2015.2656,411.0938 L2011.5938,411.0938 C2011.1406,411.0938 2011.0156,411.1094 2010.8594,411.2031 C2010.6094,411.375 2010.4531,411.6563 2010.4531,411.9375 C2010.4531,412.2188 2010.5938,412.4688 2010.8125,412.6406 C2010.9844,412.75 2011.1563,412.7813 2011.5938,412.7813 L2012.6719,412.7813 L2010.0313,419.2969 C2009.6094,419.2969 2009.4531,419.3125 2009.2969,419.4219 C2009.0469,419.5781 2008.8906,419.8594 2008.8906,420.1563 C2008.8906,420.7188 2009.2656,421 2010.0156,421 L2012.2813,421 C2012.6406,421 2012.8594,420.9688 2012.9844,420.875 C2013.25,420.7344 2013.3906,420.4375 2013.3906,420.1563 C2013.3906,419.875 2013.2656,419.625 2013.0469,419.4531 C2012.875,419.3281 2012.7344,419.2969 2012.2813,419.2969 L2011.8906,419.2969 L2012.2813,418.3125 L2016.3281,418.3125 Z M2015.625,416.6094 L2012.9531,416.6094 L2014.2969,413.3438 L2015.625,416.6094 Z " fill="#000000"/><text fill="#000000" font-family="sans-serif" font-size="14" font-style="italic" lengthAdjust="spacing" textLength="97" x="2034.75" y="421.3467">KeyOperation</text><line style="stroke:#181818;stroke-width:0.5;" x1="1947" x2="2187" y1="432.5" y2="432.5"/><text fill="#000000" font-family="sans-serif" font-size="14" lengthAdjust="spacing" textLength="32" x="1952" y="449.4951">-key</text><line style="stroke:#181818;stroke-width:0.5;" x1="1947" x2="2187" y1="456.7969" y2="456.7969"/><text fill="#000000" font-family="sans-serif" font-size="14" lengthAdjust="spacing" textLength="115" x="1952" y="473.792">+get_key(): Key</text><text fill="#000000" font-family="sans-serif" font-size="14" lengthAdjust="spacing" textLength="120" x="1952" y="490.0889">+get_dict(): Dict</text><text fill="#000000" font-family="sans-serif" font-size="14" lengthAdjust="spacing" textLength="121" x="1952" y="506.3857">+__repr__(): Void</text><text fill="#000000" font-family="sans-serif" font-size="14" lengthAdjust="spacing" textLength="230" x="1952" y="522.6826">+create_from_user_input(): cls()</text></g><!--class ClickKey--><g id="elem_ClickKey"><rect codeLine="113" fill="#F1F1F1" height="64.2969" id="ClickKey" rx="2.5" ry="2.5" style="stroke:#181818;stroke-width:0.5;" width="132" x="1834" y="647"/><ellipse cx="1866.1" cy="663" fill="#ADD1B2" rx="11" ry="11" style="stroke:#181818;stroke-width:1.0;"/><path d="M1868.4438,658.6719 C1867.5063,658.2344 1866.9125,658.0938 1866.0375,658.0938 C1863.4125,658.0938 1861.4125,660.1719 1861.4125,662.8906 L1861.4125,664.0156 C1861.4125,666.5938 1863.5219,668.4844 1866.4125,668.4844 C1867.6313,668.4844 1868.7875,668.1875 1869.5375,667.6406 C1870.1156,667.2344 1870.4438,666.7813 1870.4438,666.3906 C1870.4438,665.9375 1870.0531,665.5469 1869.5844,665.5469 C1869.3656,665.5469 1869.1625,665.625 1868.975,665.8125 C1868.5219,666.2969 1868.5219,666.2969 1868.3344,666.3906 C1867.9125,666.6563 1867.225,666.7813 1866.4594,666.7813 C1864.4125,666.7813 1863.1156,665.6875 1863.1156,663.9844 L1863.1156,662.8906 C1863.1156,661.1094 1864.3656,659.7969 1866.1,659.7969 C1866.6781,659.7969 1867.2875,659.9531 1867.7563,660.2031 C1868.2406,660.4844 1868.4125,660.7031 1868.5063,661.1094 C1868.5688,661.5156 1868.6,661.6406 1868.7406,661.7656 C1868.8813,661.9063 1869.1156,662.0156 1869.3344,662.0156 C1869.6,662.0156 1869.8656,661.875 1870.0375,661.6563 C1870.1469,661.5 1870.1781,661.3125 1870.1781,660.8906 L1870.1781,659.4688 C1870.1781,659.0313 1870.1625,658.9063 1870.0688,658.75 C1869.9125,658.4844 1869.6313,658.3438 1869.3344,658.3438 C1869.0375,658.3438 1868.8344,658.4375 1868.6156,658.75 L1868.4438,658.6719 Z " fill="#000000"/><text fill="#000000" font-family="sans-serif" font-size="14" lengthAdjust="spacing" textLength="62" x="1883.9" y="667.8467">ClickKey</text><line style="stroke:#181818;stroke-width:0.5;" x1="1835" x2="1965" y1="679" y2="679"/><line style="stroke:#181818;stroke-width:0.5;" x1="1835" x2="1965" y1="687" y2="687"/><text fill="#000000" font-family="sans-serif" font-size="14" lengthAdjust="spacing" textLength="120" x="1840" y="703.9951">+execute(): Void</text></g><!--class PressKey--><g id="elem_PressKey"><rect codeLine="117" fill="#F1F1F1" height="64.2969" id="PressKey" rx="2.5" ry="2.5" style="stroke:#181818;stroke-width:0.5;" width="132" x="2001" y="647"/><ellipse cx="2031.75" cy="663" fill="#ADD1B2" rx="11" ry="11" style="stroke:#181818;stroke-width:1.0;"/><path d="M2034.0938,658.6719 C2033.1563,658.2344 2032.5625,658.0938 2031.6875,658.0938 C2029.0625,658.0938 2027.0625,660.1719 2027.0625,662.8906 L2027.0625,664.0156 C2027.0625,666.5938 2029.1719,668.4844 2032.0625,668.4844 C2033.2813,668.4844 2034.4375,668.1875 2035.1875,667.6406 C2035.7656,667.2344 2036.0938,666.7813 2036.0938,666.3906 C2036.0938,665.9375 2035.7031,665.5469 2035.2344,665.5469 C2035.0156,665.5469 2034.8125,665.625 2034.625,665.8125 C2034.1719,666.2969 2034.1719,666.2969 2033.9844,666.3906 C2033.5625,666.6563 2032.875,666.7813 2032.1094,666.7813 C2030.0625,666.7813 2028.7656,665.6875 2028.7656,663.9844 L2028.7656,662.8906 C2028.7656,661.1094 2030.0156,659.7969 2031.75,659.7969 C2032.3281,659.7969 2032.9375,659.9531 2033.4063,660.2031 C2033.8906,660.4844 2034.0625,660.7031 2034.1563,661.1094 C2034.2188,661.5156 2034.25,661.6406 2034.3906,661.7656 C2034.5313,661.9063 2034.7656,662.0156 2034.9844,662.0156 C2035.25,662.0156 2035.5156,661.875 2035.6875,661.6563 C2035.7969,661.5 2035.8281,661.3125 2035.8281,660.8906 L2035.8281,659.4688 C2035.8281,659.0313 2035.8125,658.9063 2035.7188,658.75 C2035.5625,658.4844 2035.2813,658.3438 2034.9844,658.3438 C2034.6875,658.3438 2034.4844,658.4375 2034.2656,658.75 L2034.0938,658.6719 Z " fill="#000000"/><text fill="#000000" font-family="sans-serif" font-size="14" lengthAdjust="spacing" textLength="65" x="2049.25" y="667.8467">PressKey</text><line style="stroke:#181818;stroke-width:0.5;" x1="2002" x2="2132" y1="679" y2="679"/><line style="stroke:#181818;stroke-width:0.5;" x1="2002" x2="2132" y1="687" y2="687"/><text fill="#000000" font-family="sans-serif" font-size="14" lengthAdjust="spacing" textLength="120" x="2007" y="703.9951">+execute(): Void</text></g><!--class ReleaseKey--><g id="elem_ReleaseKey"><rect codeLine="121" fill="#F1F1F1" height="64.2969" id="ReleaseKey" rx="2.5" ry="2.5" style="stroke:#181818;stroke-width:0.5;" width="132" x="2168" y="647"/><ellipse cx="2190.65" cy="663" fill="#ADD1B2" rx="11" ry="11" style="stroke:#181818;stroke-width:1.0;"/><path d="M2192.9938,658.6719 C2192.0563,658.2344 2191.4625,658.0938 2190.5875,658.0938 C2187.9625,658.0938 2185.9625,660.1719 2185.9625,662.8906 L2185.9625,664.0156 C2185.9625,666.5938 2188.0719,668.4844 2190.9625,668.4844 C2192.1813,668.4844 2193.3375,668.1875 2194.0875,667.6406 C2194.6656,667.2344 2194.9938,666.7813 2194.9938,666.3906 C2194.9938,665.9375 2194.6031,665.5469 2194.1344,665.5469 C2193.9156,665.5469 2193.7125,665.625 2193.525,665.8125 C2193.0719,666.2969 2193.0719,666.2969 2192.8844,666.3906 C2192.4625,666.6563 2191.775,666.7813 2191.0094,666.7813 C2188.9625,666.7813 2187.6656,665.6875 2187.6656,663.9844 L2187.6656,662.8906 C2187.6656,661.1094 2188.9156,659.7969 2190.65,659.7969 C2191.2281,659.7969 2191.8375,659.9531 2192.3063,660.2031 C2192.7906,660.4844 2192.9625,660.7031 2193.0563,661.1094 C2193.1188,661.5156 2193.15,661.6406 2193.2906,661.7656 C2193.4313,661.9063 2193.6656,662.0156 2193.8844,662.0156 C2194.15,662.0156 2194.4156,661.875 2194.5875,661.6563 C2194.6969,661.5 2194.7281,661.3125 2194.7281,660.8906 L2194.7281,659.4688 C2194.7281,659.0313 2194.7125,658.9063 2194.6188,658.75 C2194.4625,658.4844 2194.1813,658.3438 2193.8844,658.3438 C2193.5875,658.3438 2193.3844,658.4375 2193.1656,658.75 L2192.9938,658.6719 Z " fill="#000000"/><text fill="#000000" font-family="sans-serif" font-size="14" lengthAdjust="spacing" textLength="83" x="2206.35" y="667.8467">ReleaseKey</text><line style="stroke:#181818;stroke-width:0.5;" x1="2169" x2="2299" y1="679" y2="679"/><line style="stroke:#181818;stroke-width:0.5;" x1="2169" x2="2299" y1="687" y2="687"/><text fill="#000000" font-family="sans-serif" font-size="14" lengthAdjust="spacing" textLength="120" x="2174" y="703.9951">+execute(): Void</text></g><!--class UseHotKey--><g id="elem_UseHotKey"><rect codeLine="125" fill="#F1F1F1" height="145.7813" id="UseHotKey" rx="2.5" ry="2.5" style="stroke:#181818;stroke-width:0.5;" width="242" x="2223" y="392"/><ellipse cx="2300.75" cy="408" fill="#ADD1B2" rx="11" ry="11" style="stroke:#181818;stroke-width:1.0;"/><path d="M2303.0938,403.6719 C2302.1563,403.2344 2301.5625,403.0938 2300.6875,403.0938 C2298.0625,403.0938 2296.0625,405.1719 2296.0625,407.8906 L2296.0625,409.0156 C2296.0625,411.5938 2298.1719,413.4844 2301.0625,413.4844 C2302.2813,413.4844 2303.4375,413.1875 2304.1875,412.6406 C2304.7656,412.2344 2305.0938,411.7813 2305.0938,411.3906 C2305.0938,410.9375 2304.7031,410.5469 2304.2344,410.5469 C2304.0156,410.5469 2303.8125,410.625 2303.625,410.8125 C2303.1719,411.2969 2303.1719,411.2969 2302.9844,411.3906 C2302.5625,411.6563 2301.875,411.7813 2301.1094,411.7813 C2299.0625,411.7813 2297.7656,410.6875 2297.7656,408.9844 L2297.7656,407.8906 C2297.7656,406.1094 2299.0156,404.7969 2300.75,404.7969 C2301.3281,404.7969 2301.9375,404.9531 2302.4063,405.2031 C2302.8906,405.4844 2303.0625,405.7031 2303.1563,406.1094 C2303.2188,406.5156 2303.25,406.6406 2303.3906,406.7656 C2303.5313,406.9063 2303.7656,407.0156 2303.9844,407.0156 C2304.25,407.0156 2304.5156,406.875 2304.6875,406.6563 C2304.7969,406.5 2304.8281,406.3125 2304.8281,405.8906 L2304.8281,404.4688 C2304.8281,404.0313 2304.8125,403.9063 2304.7188,403.75 C2304.5625,403.4844 2304.2813,403.3438 2303.9844,403.3438 C2303.6875,403.3438 2303.4844,403.4375 2303.2656,403.75 L2303.0938,403.6719 Z " fill="#000000"/><text fill="#000000" font-family="sans-serif" font-size="14" lengthAdjust="spacing" textLength="78" x="2321.25" y="412.8467">UseHotKey</text><line style="stroke:#181818;stroke-width:0.5;" x1="2224" x2="2464" y1="424" y2="424"/><text fill="#000000" font-family="sans-serif" font-size="14" lengthAdjust="spacing" textLength="39" x="2229" y="440.9951">-keys</text><line style="stroke:#181818;stroke-width:0.5;" x1="2224" x2="2464" y1="448.2969" y2="448.2969"/><text fill="#000000" font-family="sans-serif" font-size="14" lengthAdjust="spacing" textLength="133" x="2229" y="465.292">+get_keys(): Array</text><text fill="#000000" font-family="sans-serif" font-size="14" lengthAdjust="spacing" textLength="120" x="2229" y="481.5889">+get_dict(): Dict</text><text fill="#000000" font-family="sans-serif" font-size="14" lengthAdjust="spacing" textLength="120" x="2229" y="497.8857">+execute(): Void</text><text fill="#000000" font-family="sans-serif" font-size="14" lengthAdjust="spacing" textLength="121" x="2229" y="514.1826">+__repr__(): Void</text><text fill="#000000" font-family="sans-serif" font-size="14" lengthAdjust="spacing" textLength="230" x="2229" y="530.4795">+create_from_user_input(): cls()</text></g><!--class OperationQueue--><g id="elem_OperationQueue"><rect codeLine="134" fill="#F1F1F1" height="276.1563" id="OperationQueue" rx="2.5" ry="2.5" style="stroke:#181818;stroke-width:0.5;" width="264" x="1372" y="7"/><ellipse cx="1440.75" cy="23" fill="#ADD1B2" rx="11" ry="11" style="stroke:#181818;stroke-width:1.0;"/><path d="M1443.0938,18.6719 C1442.1563,18.2344 1441.5625,18.0938 1440.6875,18.0938 C1438.0625,18.0938 1436.0625,20.1719 1436.0625,22.8906 L1436.0625,24.0156 C1436.0625,26.5938 1438.1719,28.4844 1441.0625,28.4844 C1442.2813,28.4844 1443.4375,28.1875 1444.1875,27.6406 C1444.7656,27.2344 1445.0938,26.7813 1445.0938,26.3906 C1445.0938,25.9375 1444.7031,25.5469 1444.2344,25.5469 C1444.0156,25.5469 1443.8125,25.625 1443.625,25.8125 C1443.1719,26.2969 1443.1719,26.2969 1442.9844,26.3906 C1442.5625,26.6563 1441.875,26.7813 1441.1094,26.7813 C1439.0625,26.7813 1437.7656,25.6875 1437.7656,23.9844 L1437.7656,22.8906 C1437.7656,21.1094 1439.0156,19.7969 1440.75,19.7969 C1441.3281,19.7969 1441.9375,19.9531 1442.4063,20.2031 C1442.8906,20.4844 1443.0625,20.7031 1443.1563,21.1094 C1443.2188,21.5156 1443.25,21.6406 1443.3906,21.7656 C1443.5313,21.9063 1443.7656,22.0156 1443.9844,22.0156 C1444.25,22.0156 1444.5156,21.875 1444.6875,21.6563 C1444.7969,21.5 1444.8281,21.3125 1444.8281,20.8906 L1444.8281,19.4688 C1444.8281,19.0313 1444.8125,18.9063 1444.7188,18.75 C1444.5625,18.4844 1444.2813,18.3438 1443.9844,18.3438 C1443.6875,18.3438 1443.4844,18.4375 1443.2656,18.75 L1443.0938,18.6719 Z " fill="#000000"/><text fill="#000000" font-family="sans-serif" font-size="14" lengthAdjust="spacing" textLength="118" x="1461.25" y="27.8467">OperationQueue</text><line style="stroke:#181818;stroke-width:0.5;" x1="1373" x2="1635" y1="39" y2="39"/><text fill="#000000" font-family="sans-serif" font-size="14" lengthAdjust="spacing" textLength="49" x="1378" y="55.9951">-queue</text><text fill="#000000" font-family="sans-serif" font-size="14" lengthAdjust="spacing" textLength="137" x="1378" y="72.292">-stop_combination</text><line style="stroke:#181818;stroke-width:0.5;" x1="1373" x2="1635" y1="79.5938" y2="79.5938"/><text fill="#000000" font-family="sans-serif" font-size="14" lengthAdjust="spacing" textLength="148" x="1378" y="96.5889">+print_queue(): Void</text><text fill="#000000" font-family="sans-serif" font-size="14" lengthAdjust="spacing" textLength="195" x="1378" y="112.8857">+append_operation(): Void</text><text fill="#000000" font-family="sans-serif" font-size="14" lengthAdjust="spacing" textLength="150" x="1378" y="129.1826">-check_queue(): Void</text><text fill="#000000" font-family="sans-serif" font-size="14" lengthAdjust="spacing" textLength="180" x="1378" y="145.4795">+move_operation(): Void</text><text fill="#000000" font-family="sans-serif" font-size="14" lengthAdjust="spacing" textLength="85" x="1378" y="161.7764">+run(): Void</text><text fill="#000000" font-family="sans-serif" font-size="14" lengthAdjust="spacing" textLength="195" x="1378" y="178.0732">+remove_operation(): Void</text><text fill="#000000" font-family="sans-serif" font-size="14" lengthAdjust="spacing" textLength="147" x="1378" y="194.3701">+clear_queue(): Void</text><text fill="#000000" font-family="sans-serif" font-size="14" lengthAdjust="spacing" textLength="182" x="1378" y="210.667">+insert_operation(): Void</text><text fill="#000000" font-family="sans-serif" font-size="14" lengthAdjust="spacing" textLength="175" x="1378" y="226.9639">+copy_operation(): Void</text><text fill="#000000" font-family="sans-serif" font-size="14" lengthAdjust="spacing" textLength="202" x="1378" y="243.2607">+write_queue_to_file(): Void</text><text fill="#000000" font-family="sans-serif" font-size="14" lengthAdjust="spacing" textLength="216" x="1378" y="259.5576">+read_queue_from_file(): Void</text><text fill="#000000" font-family="sans-serif" font-size="14" lengthAdjust="spacing" textLength="252" x="1378" y="275.8545">+change_stop_combination(): Void</text></g><!--reverse link Operation to Pause--><g id="link_Operation_Pause"><path codeLine="1" d="M1116.6985,150.7397 C934.1295,161.0177 559.689,198.562 267,343 C241.895,355.389 217.713,373.445 196.756,391.846 " fill="none" id="Operation-backto-Pause" style="stroke:#181818;stroke-width:1.0;"/><polygon fill="none" points="1134.67,149.728,1116.3612,144.7492,1117.0357,156.7303,1134.67,149.728" style="stroke:#181818;stroke-width:1.0;"/></g><!--reverse link Operation to MoveMouseToPoint--><g id="link_Operation_MoveMouseToPoint"><path codeLine="2" d="M1117.0426,163.492 C977.3706,186.656 738.503,237.546 544,343 C527.124,352.15 510.523,363.657 494.996,375.915 " fill="none" id="Operation-backto-MoveMouseToPoint" style="stroke:#181818;stroke-width:1.0;"/><polygon fill="none" points="1134.8,160.547,1116.0609,157.5728,1118.0242,169.4111,1134.8,160.547" style="stroke:#181818;stroke-width:1.0;"/></g><!--reverse link Operation to ReplicateMouseMovement--><g id="link_Operation_ReplicateMouseMovement"><path codeLine="3" d="M1118.0073,191.7504 C1031.3673,227.1514 921.751,277.028 821,343 C799.185,357.284 777.172,374.737 757.298,391.893 " fill="none" id="Operation-backto-ReplicateMouseMovement" style="stroke:#181818;stroke-width:1.0;"/><polygon fill="none" points="1134.67,184.942,1115.7378,186.1961,1120.2767,197.3046,1134.67,184.942" style="stroke:#181818;stroke-width:1.0;"/></g><!--reverse link Operation to ReplicateMouseActions--><g id="link_Operation_ReplicateMouseActions"><path codeLine="4" d="M1168.7878,223.1613 C1122.9278,275.8143 1069.59,337.047 1021.79,391.916 " fill="none" id="Operation-backto-ReplicateMouseActions" style="stroke:#181818;stroke-width:1.0;"/><polygon fill="none" points="1180.61,209.588,1164.2634,219.2206,1173.3123,227.1021,1180.61,209.588" style="stroke:#181818;stroke-width:1.0;"/></g><!--reverse link Operation to ClickMouse--><g id="link_Operation_ClickMouse"><path codeLine="5" d="M1236,227.588 C1236,265.741 1236,297.526 1236,342.928 " fill="none" id="Operation-backto-ClickMouse" style="stroke:#181818;stroke-width:1.0;"/><polygon fill="none" points="1236,209.588,1230,227.588,1242,227.588,1236,209.588" style="stroke:#181818;stroke-width:1.0;"/></g><!--reverse link Operation to PrsRlsMouse--><g id="link_Operation_PrsRlsMouse"><path codeLine="6" d="M1303.17,223.3977 C1323.2,246.4707 1334.21,259.122 1355,283 C1388.97,322.007 1427.1,365.692 1457.39,400.371 " fill="none" id="Operation-backto-PrsRlsMouse" style="stroke:#181818;stroke-width:1.0;"/><polygon fill="none" points="1291.37,209.805,1298.6391,227.331,1307.7009,219.4643,1291.37,209.805" style="stroke:#181818;stroke-width:1.0;"/></g><!--reverse link PrsRlsMouse to PressMouse--><g id="link_PrsRlsMouse_PressMouse"><path codeLine="7" d="M1481.1686,546.3409 C1465.7986,585.1259 1453.47,616.2423 1441.31,646.9357 " fill="none" id="PrsRlsMouse-backto-PressMouse" style="stroke:#181818;stroke-width:1.0;"/><polygon fill="none" points="1487.8,529.607,1475.5906,544.1304,1486.7465,548.5514,1487.8,529.607" style="stroke:#181818;stroke-width:1.0;"/></g><!--reverse link PrsRlsMouse to ReleaseMouse--><g id="link_PrsRlsMouse_ReleaseMouse"><path codeLine="8" d="M1544.8314,546.3409 C1560.2014,585.1259 1572.53,616.2423 1584.69,646.9357 " fill="none" id="PrsRlsMouse-backto-ReleaseMouse" style="stroke:#181818;stroke-width:1.0;"/><polygon fill="none" points="1538.2,529.607,1539.2535,548.5514,1550.4094,544.1304,1538.2,529.607" style="stroke:#181818;stroke-width:1.0;"/></g><!--reverse link Operation to TypeText--><g id="link_Operation_TypeText"><path codeLine="9" d="M1288.0565,224.0086 C1308.3865,250.5846 1324.24,265.081 1355,283 C1471.36,350.784 1531.31,283.264 1652,343 C1676.99,355.368 1701.02,373.416 1721.82,391.818 " fill="none" id="Operation-backto-TypeText" style="stroke:#181818;stroke-width:1.0;"/><polygon fill="none" points="1277.12,209.712,1283.291,227.6541,1292.8221,220.3631,1277.12,209.712" style="stroke:#181818;stroke-width:1.0;"/></g><!--reverse link Operation to KeyOperation--><g id="link_Operation_KeyOperation"><path codeLine="10" d="M1286.0328,224.1123 C1306.3328,251.3643 1322.86,266.274 1355,283 C1582.53,401.418 1693.96,240.285 1929,343 C1959.22,356.206 1987.56,378.512 2010.6,400.401 " fill="none" id="Operation-backto-KeyOperation" style="stroke:#181818;stroke-width:1.0;"/><polygon fill="none" points="1275.28,209.677,1281.2211,227.6965,1290.8446,220.528,1275.28,209.677" style="stroke:#181818;stroke-width:1.0;"/></g><!--reverse link KeyOperation to ClickKey--><g id="link_KeyOperation_ClickKey"><path codeLine="11" d="M2005.7521,543.7472 C1975.2021,582.5322 1948.65,616.2423 1924.47,646.9357 " fill="none" id="KeyOperation-backto-ClickKey" style="stroke:#181818;stroke-width:1.0;"/><polygon fill="none" points="2016.89,529.607,2001.0387,540.0346,2010.4655,547.4599,2016.89,529.607" style="stroke:#181818;stroke-width:1.0;"/></g><!--reverse link KeyOperation to PressKey--><g id="link_KeyOperation_PressKey"><path codeLine="12" d="M2067,547.607 C2067,586.392 2067,616.2423 2067,646.9357 " fill="none" id="KeyOperation-backto-PressKey" style="stroke:#181818;stroke-width:1.0;"/><polygon fill="none" points="2067,529.607,2061,547.607,2073,547.607,2067,529.607" style="stroke:#181818;stroke-width:1.0;"/></g><!--reverse link KeyOperation to ReleaseKey--><g id="link_KeyOperation_ReleaseKey"><path codeLine="13" d="M2128.2479,543.7472 C2158.7979,582.5322 2185.35,616.2423 2209.53,646.9357 " fill="none" id="KeyOperation-backto-ReleaseKey" style="stroke:#181818;stroke-width:1.0;"/><polygon fill="none" points="2117.11,529.607,2123.5345,547.4599,2132.9613,540.0346,2117.11,529.607" style="stroke:#181818;stroke-width:1.0;"/></g><!--reverse link Operation to UseHotKey--><g id="link_Operation_UseHotKey"><path codeLine="14" d="M1285.4607,224.2983 C1305.7307,251.7553 1322.44,266.748 1355,283 C1524.62,367.672 2031.03,270.027 2206,343 C2232.76,354.161 2257.94,372.677 2279.27,391.908 " fill="none" id="Operation-backto-UseHotKey" style="stroke:#181818;stroke-width:1.0;"/><polygon fill="none" points="1274.77,209.817,1280.6336,227.8619,1290.2878,220.7347,1274.77,209.817" style="stroke:#181818;stroke-width:1.0;"/></g><!--SRC=[nLLDZziW4BtpAtpSbMMfvwYNj5NLrMgrQJRj5H4ycqMnWG9kuwRxtplWpx1EKgdTz6IOznWURs1yhy4m9vHCtlxAicJ1AWla_Z1ufxx3dK9WfHPAI1VZIz25uCmr9CykuHnhpZrYOz9xf6m38KOMnYuBsq2ZSGU2FOOjeG1cOJBfgjQmWjqBhRTGzn4odenKOdW22agceLQ81oFaYuLFodd0ReNKpB0ouGMpTkwS4UlAmGrNya7yXEGD8OIjhJECksH8ioSaJJRWg6GbN5tZPD-ndaCy5zp5STW1nznnc583sb0Qnxa1h1vzDAgawAMXABNoIPy92MgRsuDQihnglKl3tktiwdgMV2mKSsquI9eb7_1BqbxCBFcgH4xIGKONEIPWXcRPiOxumdf9EvBLpRuxl-96jYhgWzdhQPf-92XCAokQjn0Kz5EVOsuCgo-hh7sOA8pn_ofhQ0Lz-J9y2WvlLSOzPi-Ni-7xqBjcPOWsgr-zxlqp7RMaVN-64_eEnVo5XKDRtByyrAZ-GuCynUkQ9Px1-PuPjFgHfpvWevAR2vWvxgkeP0ljHSI1Nt0BzJysiMlsfwpfkluVs7o6rVyAchFP_d2NUtYzlPyhgFoD_UQ_9BDEQSfLkHQoRUuQQ-veW8TzcDOWSwgwB3sIyIVWsvXUOYUS8AUc6a_W68sZgIREAIIUpqtIbQwduZ-CG6z26keKVHG5Z7TdUOi5zmvH_iJa1cZipb3Qtm00]--></g></svg>